<?xml version="1.0" encoding="UTF-8" standalone="no"?><!DOCTYPE svg PUBLIC "-//W3C//DTD SVG 1.1//EN" "http://www.w3.org/Graphics/SVG/1.1/DTD/svg11.dtd"><svg width="100%" height="100%" viewBox="0 0 4584 2917" version="1.1" xmlns="http://www.w3.org/2000/svg" xmlns:xlink="http://www.w3.org/1999/xlink" xml:space="preserve" xmlns:serif="http://www.serif.com/" style="fill-rule:evenodd;clip-rule:evenodd;"><rect x="123.858" y="36.671" width="10.163" height="10.383" style="fill:#fff;"/><g><rect x="0" y="0" width="4583.33" height="2916.67" style="fill:#fff;"/></g><path d="M327.383,1107.98l314.275,0" style="fill:none;fill-rule:nonzero;stroke:#dedddd;stroke-width:11px;"/><rect x="327.383" y="1060.53" width="37.596" height="94.9" style="fill:#ba283d;"/><path d="M327.383,1435.25l314.275,0" style="fill:none;fill-rule:nonzero;stroke:#dedddd;stroke-width:11px;"/><rect x="327.383" y="1387.8" width="43.387" height="94.9" style="fill:#ba283d;"/><path d="M327.383,1762.42l314.275,0" style="fill:none;fill-rule:nonzero;stroke:#dedddd;stroke-width:11px;"/><rect x="327.383" y="1715.08" width="14.733" height="94.9" style="fill:#ba283d;"/><path d="M327.383,2744.13l314.275,0" style="fill:none;fill-rule:nonzero;stroke:#dedddd;stroke-width:11px;"/><rect x="327.383" y="2696.78" width="7.521" height="94.9" style="fill:#ba283d;"/><path d="M702.421,1107.98l314.279,0" style="fill:none;fill-rule:nonzero;stroke:#dedddd;stroke-width:11px;"/><rect x="702.421" y="1060.53" width="68.587" height="94.9" style="fill:#ba283d;"/><path d="M702.421,1435.25l314.279,0" style="fill:none;fill-rule:nonzero;stroke:#dedddd;stroke-width:11px;"/><rect x="702.421" y="1387.8" width="33.329" height="94.9" style="fill:#ba283d;"/><path d="M702.421,1762.42l314.279,0" style="fill:none;fill-rule:nonzero;stroke:#dedddd;stroke-width:11px;"/><rect x="702.421" y="1715.08" width="144.592" height="94.9" style="fill:#ba283d;"/><path d="M702.421,2089.69l314.279,0" style="fill:none;fill-rule:nonzero;stroke:#dedddd;stroke-width:11px;"/><rect x="702.421" y="2042.24" width="64.117" height="94.9" style="fill:#ba283d;"/><path d="M702.421,2744.13l314.279,0" style="fill:none;fill-rule:nonzero;stroke:#dedddd;stroke-width:11px;"/><rect x="702.421" y="2696.78" width="22.05" height="94.9" style="fill:#ba283d;"/><path d="M1077.46,1107.98l314.275,0" style="fill:none;fill-rule:nonzero;stroke:#dedddd;stroke-width:11px;"/><rect x="1077.46" y="1060.53" width="66.858" height="94.9" style="fill:#ba283d;"/><path d="M1077.46,1435.25l314.275,0" style="fill:none;fill-rule:nonzero;stroke:#dedddd;stroke-width:11px;"/><rect x="1077.46" y="1387.8" width="225.775" height="94.9" style="fill:#ba283d;"/><path d="M1077.46,1762.42l314.275,0" style="fill:none;fill-rule:nonzero;stroke:#dedddd;stroke-width:11px;"/><rect x="1077.46" y="1715.08" width="117.662" height="94.9" style="fill:#ba283d;"/><path d="M1077.46,2089.69l314.275,0" style="fill:none;fill-rule:nonzero;stroke:#dedddd;stroke-width:11px;"/><rect x="1077.46" y="2042.24" width="22.558" height="94.9" style="fill:#ba283d;"/><path d="M1452.4,1107.98l314.279,0" style="fill:none;fill-rule:nonzero;stroke:#dedddd;stroke-width:11px;"/><rect x="1452.4" y="1060.53" width="218.563" height="94.9" style="fill:#ba283d;"/><path d="M1452.4,1435.25l314.279,0" style="fill:none;fill-rule:nonzero;stroke:#dedddd;stroke-width:11px;"/><rect x="1452.4" y="1387.8" width="73.258" height="94.9" style="fill:#ba283d;"/><path d="M1452.4,1762.42l314.279,0" style="fill:none;fill-rule:nonzero;stroke:#dedddd;stroke-width:11px;"/><rect x="1452.4" y="1715.08" width="119.492" height="94.9" style="fill:#ba283d;"/><path d="M1452.4,2089.69l314.279,0" style="fill:none;fill-rule:nonzero;stroke:#dedddd;stroke-width:11px;"/><rect x="1452.4" y="2042.24" width="140.425" height="94.9" style="fill:#ba283d;"/><path d="M1452.4,2416.96l314.279,-0.001" style="fill:none;fill-rule:nonzero;stroke:#dedddd;stroke-width:11px;"/><rect x="1452.4" y="2369.51" width="99.171" height="94.9" style="fill:#ba283d;"/><path d="M1452.4,2744.13l314.279,0" style="fill:none;fill-rule:nonzero;stroke:#dedddd;stroke-width:11px;"/><rect x="1452.4" y="2696.78" width="55.783" height="94.9" style="fill:#ba283d;"/><path d="M1827.44,1107.98l314.275,0" style="fill:none;fill-rule:nonzero;stroke:#dedddd;stroke-width:11px;"/><rect x="1827.44" y="1060.53" width="52.733" height="94.9" style="fill:#ba283d;"/><path d="M1827.44,1435.25l314.275,0" style="fill:none;fill-rule:nonzero;stroke:#dedddd;stroke-width:11px;"/><rect x="1827.44" y="1387.8" width="138.8" height="94.9" style="fill:#ba283d;"/><path d="M1827.44,1762.42l314.275,0" style="fill:none;fill-rule:nonzero;stroke:#dedddd;stroke-width:11px;"/><rect x="1827.44" y="1715.08" width="139.104" height="94.9" style="fill:#ba283d;"/><path d="M1827.44,2089.69l314.275,0" style="fill:none;fill-rule:nonzero;stroke:#dedddd;stroke-width:11px;"/><rect x="1827.44" y="2042.24" width="136.258" height="94.9" style="fill:#ba283d;"/><path d="M1827.44,2416.96l314.275,-0.001" style="fill:none;fill-rule:nonzero;stroke:#dedddd;stroke-width:11px;"/><rect x="1827.44" y="2369.51" width="64.117" height="94.9" style="fill:#ba283d;"/><path d="M2202.48,780.817l314.279,0" style="fill:none;fill-rule:nonzero;stroke:#dedddd;stroke-width:11px;"/><rect x="2202.48" y="733.367" width="148.754" height="94.9" style="fill:#ba283d;"/><path d="M2202.48,1107.98l314.279,0" style="fill:none;fill-rule:nonzero;stroke:#dedddd;stroke-width:11px;"/><rect x="2202.48" y="1060.53" width="67.467" height="94.9" style="fill:#ba283d;"/><path d="M2202.48,1435.25l314.279,0" style="fill:none;fill-rule:nonzero;stroke:#dedddd;stroke-width:11px;"/><rect x="2202.48" y="1387.8" width="162.575" height="94.9" style="fill:#ba283d;"/><path d="M2202.48,1762.42l314.279,0" style="fill:none;fill-rule:nonzero;stroke:#dedddd;stroke-width:11px;"/><rect x="2202.48" y="1715.08" width="184.929" height="94.9" style="fill:#ba283d;"/><path d="M2202.48,2089.69l314.279,0" style="fill:none;fill-rule:nonzero;stroke:#dedddd;stroke-width:11px;"/><rect x="2202.48" y="2042.24" width="82" height="94.9" style="fill:#ba283d;"/><path d="M2202.48,2416.96l314.279,-0.001" style="fill:none;fill-rule:nonzero;stroke:#dedddd;stroke-width:11px;"/><rect x="2202.48" y="2369.51" width="74.379" height="94.9" style="fill:#ba283d;"/><path d="M2577.52,1107.98l314.275,0" style="fill:none;fill-rule:nonzero;stroke:#dedddd;stroke-width:11px;"/><rect x="2577.52" y="1060.53" width="111.871" height="94.9" style="fill:#ba283d;"/><path d="M2577.52,1435.25l314.275,0" style="fill:none;fill-rule:nonzero;stroke:#dedddd;stroke-width:11px;"/><rect x="2577.52" y="1387.8" width="171.008" height="94.9" style="fill:#ba283d;"/><path d="M2577.52,1762.42l314.275,0" style="fill:none;fill-rule:nonzero;stroke:#dedddd;stroke-width:11px;"/><rect x="2577.52" y="1715.08" width="175.683" height="94.9" style="fill:#ba283d;"/><path d="M2577.52,2089.69l314.275,0" style="fill:none;fill-rule:nonzero;stroke:#dedddd;stroke-width:11px;"/><rect x="2577.52" y="2042.24" width="102.929" height="94.9" style="fill:#ba283d;"/><path d="M2577.52,2416.96l314.275,-0.001" style="fill:none;fill-rule:nonzero;stroke:#dedddd;stroke-width:11px;"/><rect x="2577.52" y="2369.51" width="155.463" height="94.9" style="fill:#ba283d;"/><path d="M2952.56,1435.25l314.28,0" style="fill:none;fill-rule:nonzero;stroke:#dedddd;stroke-width:11px;"/><rect x="2952.56" y="1387.8" width="128.842" height="94.9" style="fill:#ba283d;"/><path d="M2952.56,1762.42l314.28,0" style="fill:none;fill-rule:nonzero;stroke:#dedddd;stroke-width:11px;"/><rect x="2952.56" y="1715.08" width="113.904" height="94.9" style="fill:#ba283d;"/><path d="M2952.56,2089.69l314.28,0" style="fill:none;fill-rule:nonzero;stroke:#dedddd;stroke-width:11px;"/><rect x="2952.56" y="2042.24" width="164.608" height="94.9" style="fill:#ba283d;"/><path d="M2952.56,2416.96l314.28,-0.001" style="fill:none;fill-rule:nonzero;stroke:#dedddd;stroke-width:11px;"/><rect x="2952.56" y="2369.51" width="99.071" height="94.9" style="fill:#ba283d;"/><path d="M3327.6,780.817l314.279,0" style="fill:none;fill-rule:nonzero;stroke:#dedddd;stroke-width:11px;"/><rect x="3327.6" y="733.367" width="69.804" height="94.9" style="fill:#ba283d;"/><path d="M3327.6,1107.98l314.279,0" style="fill:none;fill-rule:nonzero;stroke:#dedddd;stroke-width:11px;"/><rect x="3327.6" y="1060.53" width="32.717" height="94.9" style="fill:#ba283d;"/><path d="M3327.6,1435.25l314.279,0" style="fill:none;fill-rule:nonzero;stroke:#dedddd;stroke-width:11px;"/><rect x="3327.6" y="1387.8" width="12.904" height="94.9" style="fill:#ba283d;"/><path d="M3327.6,1762.42l314.279,0" style="fill:none;fill-rule:nonzero;stroke:#dedddd;stroke-width:11px;"/><rect x="3327.6" y="1715.08" width="54.871" height="94.9" style="fill:#ba283d;"/><path d="M3337.8,2520.69l314.279,0" style="fill:none;fill-rule:nonzero;stroke:#dedddd;stroke-width:11px;"/><rect x="3337.8" y="2473.34" width="39.525" height="94.9" style="fill:#ba283d;"/><path d="M3702.64,780.817l314.275,0" style="fill:none;fill-rule:nonzero;stroke:#dedddd;stroke-width:11px;"/><rect x="3702.64" y="733.367" width="91.142" height="94.9" style="fill:#ba283d;"/><path d="M3702.64,1107.98l314.275,0" style="fill:none;fill-rule:nonzero;stroke:#dedddd;stroke-width:11px;"/><rect x="3702.64" y="1060.53" width="25.808" height="94.9" style="fill:#ba283d;"/><path d="M3702.64,1435.25l314.275,0" style="fill:none;fill-rule:nonzero;stroke:#dedddd;stroke-width:11px;"/><rect x="3702.64" y="1387.8" width="60.154" height="94.9" style="fill:#ba283d;"/><path d="M3702.64,1762.42l314.275,0" style="fill:none;fill-rule:nonzero;stroke:#dedddd;stroke-width:11px;"/><rect x="3702.64" y="1715.08" width="72.446" height="94.9" style="fill:#ba283d;"/><path d="M4077.58,780.817l314.275,0" style="fill:none;fill-rule:nonzero;stroke:#dedddd;stroke-width:11px;"/><rect x="4077.58" y="733.367" width="41.05" height="94.9" style="fill:#ba283d;"/><path d="M4077.58,1435.25l314.275,0" style="fill:none;fill-rule:nonzero;stroke:#dedddd;stroke-width:11px;"/><rect x="4077.58" y="1387.8" width="66.25" height="94.9" style="fill:#ba283d;"/><g><text x="386.721px" y="2633.45px" style="font-family:'SFUIDisplay-Light', 'SF UI Display';font-weight:300;font-size:62.296px;">H</text><text x="428.008px" y="2633.45px" style="font-family:'SFUIDisplay-Light', 'SF UI Display';font-weight:300;font-size:62.296px;">aw<tspan x="503.931px " y="2633.45px ">a</tspan>ii</text></g><g><text x="766.129px" y="2633.45px" style="font-family:'SFUIDisplay-Light', 'SF UI Display';font-weight:300;font-size:62.296px;">A</text><text x="803.7px" y="2633.45px" style="font-family:'SFUIDisplay-Light', 'SF UI Display';font-weight:300;font-size:62.296px;">lask<tspan x="906.452px " y="2633.45px ">a</tspan></text></g><g><text x="1528.61px" y="2633.45px" style="font-family:'SFUIDisplay-Light', 'SF UI Display';font-weight:300;font-size:62.296px;">T</text><text x="1557.18px" y="2633.45px" style="font-family:'SFUIDisplay-Light', 'SF UI Display';font-weight:300;font-size:62.296px;">e<tspan x="1589.46px 1617.93px " y="2633.45px 2633.45px ">xa</tspan>s</text></g><g><text x="3395.72px" y="2410.01px" style="font-family:'SFUIDisplay-Light', 'SF UI Display';font-weight:300;font-size:62.296px;">F</text><text x="3427.3px" y="2410.01px" style="font-family:'SFUIDisplay-Light', 'SF UI Display';font-weight:300;font-size:62.296px;">lorida</text></g><g><text x="1463.07px" y="2306.18px" style="font-family:'SFUIDisplay-Light', 'SF UI Display';font-weight:300;font-size:62.296px;">O</text><text x="1506.77px" y="2306.18px" style="font-family:'SFUIDisplay-Light', 'SF UI Display';font-weight:300;font-size:62.296px;">klahoma</text></g><g><text x="1850px" y="2306.18px" style="font-family:'SFUIDisplay-Light', 'SF UI Display';font-weight:300;font-size:62.296px;">L</text><text x="1879.77px" y="2306.18px" style="font-family:'SFUIDisplay-Light', 'SF UI Display';font-weight:300;font-size:62.296px;">ouisiana</text></g><g><text x="2204.41px" y="2306.18px" style="font-family:'SFUIDisplay-Light', 'SF UI Display';font-weight:300;font-size:62.296px;">M</text><text x="2253.83px" y="2306.18px" style="font-family:'SFUIDisplay-Light', 'SF UI Display';font-weight:300;font-size:62.296px;">ississippi</text></g><g><text x="2608.51px" y="2306.18px" style="font-family:'SFUIDisplay-Light', 'SF UI Display';font-weight:300;font-size:62.296px;">A</text><text x="2646.08px" y="2306.18px" style="font-family:'SFUIDisplay-Light', 'SF UI Display';font-weight:300;font-size:62.296px;">labama</text></g><g><text x="2996.86px" y="2306.18px" style="font-family:'SFUIDisplay-Light', 'SF UI Display';font-weight:300;font-size:62.296px;">G</text><text x="3038.98px" y="2306.18px" style="font-family:'SFUIDisplay-Light', 'SF UI Display';font-weight:300;font-size:62.296px;">eor<tspan x="3122.82px " y="2306.18px ">g</tspan>ia</text></g><g><text x="749.263px" y="1978.91px" style="font-family:'SFUIDisplay-Light', 'SF UI Display';font-weight:300;font-size:62.296px;">A</text><text x="786.829px" y="1978.91px" style="font-family:'SFUIDisplay-Light', 'SF UI Display';font-weight:300;font-size:62.296px;">riz<tspan x="846.722px " y="1978.91px ">o</tspan>na</text></g><g><text x="1056.83px" y="1978.91px" style="font-family:'SFUIDisplay-Light', 'SF UI Display';font-weight:300;font-size:62.296px;">N</text><text x="1098.3px" y="1978.91px" style="font-family:'SFUIDisplay-Light', 'SF UI Display';font-weight:300;font-size:62.296px;">e<tspan x="1130.73px " y="1978.91px ">w</tspan> Me<tspan x="1272.23px " y="1978.91px ">x</tspan>ico</text></g><g><text x="1511.74px" y="1978.91px" style="font-family:'SFUIDisplay-Light', 'SF UI Display';font-weight:300;font-size:62.296px;">K</text><text x="1546.84px" y="1978.91px" style="font-family:'SFUIDisplay-Light', 'SF UI Display';font-weight:300;font-size:62.296px;">ansas</text></g><g><text x="1855.89px" y="1978.91px" style="font-family:'SFUIDisplay-Light', 'SF UI Display';font-weight:300;font-size:62.296px;">A</text><text x="1893.46px" y="1978.91px" style="font-family:'SFUIDisplay-Light', 'SF UI Display';font-weight:300;font-size:62.296px;">rk<tspan x="1942.61px " y="1978.91px ">a</tspan>nsas</text></g><g><text x="2212.13px" y="1978.91px" style="font-family:'SFUIDisplay-Light', 'SF UI Display';font-weight:300;font-size:62.296px;">T</text><text x="2240.71px" y="1978.91px" style="font-family:'SFUIDisplay-Light', 'SF UI Display';font-weight:300;font-size:62.296px;">ennessee</text></g><g><text x="2594.09px" y="1978.91px" style="font-family:'SFUIDisplay-Light', 'SF UI Display';font-weight:300;font-size:62.296px;">N</text><text x="2635.55px" y="1978.91px" style="font-family:'SFUIDisplay-Light', 'SF UI Display';font-weight:300;font-size:62.296px;">. Car<tspan x="2755.83px " y="1978.91px ">o</tspan>lina</text></g><g><text x="2969.74px" y="1978.91px" style="font-family:'SFUIDisplay-Light', 'SF UI Display';font-weight:300;font-size:62.296px;">S</text><text x="3004.93px" y="1978.91px" style="font-family:'SFUIDisplay-Light', 'SF UI Display';font-weight:300;font-size:62.296px;">. Car<tspan x="3125.2px " y="1978.91px ">o</tspan>lina</text></g><g><text x="345.771px" y="1651.74px" style="font-family:'SFUIDisplay-Light', 'SF UI Display';font-weight:300;font-size:62.296px;">C</text><text x="386.583px" y="1651.74px" style="font-family:'SFUIDisplay-Light', 'SF UI Display';font-weight:300;font-size:62.296px;">alif<tspan x="458.491px " y="1651.74px ">o</tspan>rnia</text></g><g><text x="790.925px" y="1651.74px" style="font-family:'SFUIDisplay-Light', 'SF UI Display';font-weight:300;font-size:62.296px;">U</text><text x="832.658px" y="1651.74px" style="font-family:'SFUIDisplay-Light', 'SF UI Display';font-weight:300;font-size:62.296px;">t<tspan x="850.362px " y="1651.74px ">a</tspan>h</text></g><g><text x="1103.58px" y="1651.74px" style="font-family:'SFUIDisplay-Light', 'SF UI Display';font-weight:300;font-size:62.296px;">C<tspan x="1145.86px " y="1651.74px ">o</tspan></text><text x="1177.97px" y="1651.74px" style="font-family:'SFUIDisplay-Light', 'SF UI Display';font-weight:300;font-size:62.296px;">lor<tspan x="1241.66px " y="1651.74px ">a</tspan>do</text></g><g><text x="1474.75px" y="1651.74px" style="font-family:'SFUIDisplay-Light', 'SF UI Display';font-weight:300;font-size:62.296px;">N</text><text x="1516.22px" y="1651.74px" style="font-family:'SFUIDisplay-Light', 'SF UI Display';font-weight:300;font-size:62.296px;">ebr<tspan x="1602.12px " y="1651.74px ">a</tspan>sk<tspan x="1693.01px " y="1651.74px ">a</tspan></text></g><g><text x="1862.09px" y="1651.74px" style="font-family:'SFUIDisplay-Light', 'SF UI Display';font-weight:300;font-size:62.296px;">M</text><text x="1911.5px" y="1651.74px" style="font-family:'SFUIDisplay-Light', 'SF UI Display';font-weight:300;font-size:62.296px;">issouri</text></g><g><text x="2226.56px" y="1651.74px" style="font-family:'SFUIDisplay-Light', 'SF UI Display';font-weight:300;font-size:62.296px;">K</text><text x="2260.94px" y="1651.74px" style="font-family:'SFUIDisplay-Light', 'SF UI Display';font-weight:300;font-size:62.296px;">entucky</text></g><g><text x="2541.65px" y="1651.74px" style="font-family:'SFUIDisplay-Light', 'SF UI Display';font-weight:300;font-size:62.296px;">W</text><text x="2593.98px" y="1651.74px" style="font-family:'SFUIDisplay-Light', 'SF UI Display';font-weight:300;font-size:62.296px;">est Vir<tspan x="2755.47px " y="1651.74px ">g</tspan>inia</text></g><g><text x="2997.47px" y="1651.74px" style="font-family:'SFUIDisplay-Light', 'SF UI Display';font-weight:300;font-size:62.296px;">V</text><text x="3035.04px" y="1651.74px" style="font-family:'SFUIDisplay-Light', 'SF UI Display';font-weight:300;font-size:62.296px;">ir<tspan x="3064.3px " y="1651.74px ">g</tspan>inia</text></g><g><text x="3348.22px" y="1651.74px" style="font-family:'SFUIDisplay-Light', 'SF UI Display';font-weight:300;font-size:62.296px;">M</text><text x="3397.64px" y="1651.74px" style="font-family:'SFUIDisplay-Light', 'SF UI Display';font-weight:300;font-size:62.296px;">aryland</text></g><g><text x="3726.42px" y="1651.74px" style="font-family:'SFUIDisplay-Light', 'SF UI Display';font-weight:300;font-size:62.296px;">D<tspan x="3768.58px " y="1651.74px ">e</tspan></text><text x="3799.68px" y="1651.74px" style="font-family:'SFUIDisplay-Light', 'SF UI Display';font-weight:300;font-size:62.296px;">law<tspan x="3887.46px 3919.34px 3936.74px " y="1651.74px 1651.74px 1651.74px ">are</tspan></text></g><g><text x="376.867px" y="1324.47px" style="font-family:'SFUIDisplay-Light', 'SF UI Display';font-weight:300;font-size:62.296px;">O</text><text x="420.742px" y="1324.47px" style="font-family:'SFUIDisplay-Light', 'SF UI Display';font-weight:300;font-size:62.296px;">r<tspan x="438.141px " y="1324.47px ">e</tspan>gon</text></g><g><text x="750.788px" y="1324.47px" style="font-family:'SFUIDisplay-Light', 'SF UI Display';font-weight:300;font-size:62.296px;">N</text><text x="792.254px" y="1324.47px" style="font-family:'SFUIDisplay-Light', 'SF UI Display';font-weight:300;font-size:62.296px;">e<tspan x="824.588px 853.212px " y="1324.47px 1324.47px ">va</tspan>da</text></g><g><text x="1095.04px" y="1324.47px" style="font-family:'SFUIDisplay-Light', 'SF UI Display';font-weight:300;font-size:62.296px;">W</text><text x="1150.08px" y="1324.47px" style="font-family:'SFUIDisplay-Light', 'SF UI Display';font-weight:300;font-size:62.296px;">y<tspan x="1179.25px " y="1324.47px ">o</tspan>ming</text></g><g><text x="1413.99px" y="1324.47px" style="font-family:'SFUIDisplay-Light', 'SF UI Display';font-weight:300;font-size:62.296px;">S<tspan x="1450.43px " y="1324.47px ">o</tspan></text><text x="1482.67px" y="1324.47px" style="font-family:'SFUIDisplay-Light', 'SF UI Display';font-weight:300;font-size:62.296px;">uth D<tspan x="1623.35px 1655.23px 1683.85px 1717.58px 1735.29px " y="1324.47px 1324.47px 1324.47px 1324.47px 1324.47px ">akota</tspan></text></g><g><text x="1915.64px" y="1324.47px" style="font-family:'SFUIDisplay-Light', 'SF UI Display';font-weight:300;font-size:62.296px;">Io</text><text x="1960.74px" y="1324.47px" style="font-family:'SFUIDisplay-Light', 'SF UI Display';font-weight:300;font-size:62.296px;">w<tspan x="2004.78px " y="1324.47px ">a</tspan></text></g><g><text x="2252.78px" y="1324.47px" style="font-family:'SFUIDisplay-Light', 'SF UI Display';font-weight:300;font-size:62.296px;">In</text><text x="2297.52px" y="1324.47px" style="font-family:'SFUIDisplay-Light', 'SF UI Display';font-weight:300;font-size:62.296px;">diana</text></g><g><text x="2665.92px" y="1324.47px" style="font-family:'SFUIDisplay-Light', 'SF UI Display';font-weight:300;font-size:62.296px;">O</text><text x="2709.62px" y="1324.47px" style="font-family:'SFUIDisplay-Light', 'SF UI Display';font-weight:300;font-size:62.296px;">hio</text></g><g><text x="2922.69px" y="1324.47px" style="font-family:'SFUIDisplay-Light', 'SF UI Display';font-weight:300;font-size:62.296px;">P</text><text x="2956.5px" y="1324.47px" style="font-family:'SFUIDisplay-Light', 'SF UI Display';font-weight:300;font-size:62.296px;">ennsylv<tspan x="3155.38px " y="1324.47px ">a</tspan>nia</text></g><g><text x="3322.93px" y="1324.47px" style="font-family:'SFUIDisplay-Light', 'SF UI Display';font-weight:300;font-size:62.296px;">N</text><text x="3364.39px" y="1324.47px" style="font-family:'SFUIDisplay-Light', 'SF UI Display';font-weight:300;font-size:62.296px;">e<tspan x="3396.82px " y="1324.47px ">w</tspan> Jer<tspan x="3537.38px 3566.52px 3598.85px " y="1324.47px 1324.47px 1324.47px ">sey</tspan></text></g><g><text x="3688.62px" y="1324.47px" style="font-family:'SFUIDisplay-Light', 'SF UI Display';font-weight:300;font-size:62.296px;">C<tspan x="3730.9px " y="1324.47px ">o</tspan></text><text x="3763.01px" y="1324.47px" style="font-family:'SFUIDisplay-Light', 'SF UI Display';font-weight:300;font-size:62.296px;">nnecticut</text></g><g><text x="4048.62px" y="1324.47px" style="font-family:'SFUIDisplay-Light', 'SF UI Display';font-weight:300;font-size:62.296px;">R</text><text x="4084.31px" y="1324.47px" style="font-family:'SFUIDisplay-Light', 'SF UI Display';font-weight:300;font-size:62.296px;">hode Island</text></g><g><text x="310.821px" y="997.196px" style="font-family:'SFUIDisplay-Light', 'SF UI Display';font-weight:300;font-size:62.296px;">W</text><text x="362.35px" y="997.196px" style="font-family:'SFUIDisplay-Light', 'SF UI Display';font-weight:300;font-size:62.296px;">ashingt<tspan x="554.5px " y="997.196px ">o</tspan>n</text></g><g><text x="777.613px" y="997.196px" style="font-family:'SFUIDisplay-Light', 'SF UI Display';font-weight:300;font-size:62.296px;">Id</text><text x="824.142px" y="997.196px" style="font-family:'SFUIDisplay-Light', 'SF UI Display';font-weight:300;font-size:62.296px;">aho</text></g><g><text x="1105.2px" y="997.196px" style="font-family:'SFUIDisplay-Light', 'SF UI Display';font-weight:300;font-size:62.296px;">M</text><text x="1154.62px" y="997.196px" style="font-family:'SFUIDisplay-Light', 'SF UI Display';font-weight:300;font-size:62.296px;">ont<tspan x="1239.42px " y="997.196px ">a</tspan>na</text></g><g><text x="1413.28px" y="997.196px" style="font-family:'SFUIDisplay-Light', 'SF UI Display';font-weight:300;font-size:62.296px;">N</text><text x="1454.75px" y="997.196px" style="font-family:'SFUIDisplay-Light', 'SF UI Display';font-weight:300;font-size:62.296px;">or<tspan x="1508.04px " y="997.196px ">t</tspan>h D<tspan x="1615.35px 1647.23px 1675.85px 1709.59px 1727.29px " y="997.196px 997.196px 997.196px 997.196px 997.196px ">akota</tspan></text></g><g><text x="1833.13px" y="997.196px" style="font-family:'SFUIDisplay-Light', 'SF UI Display';font-weight:300;font-size:62.296px;">M</text><text x="1882.55px" y="997.196px" style="font-family:'SFUIDisplay-Light', 'SF UI Display';font-weight:300;font-size:62.296px;">innesot<tspan x="2074.42px " y="997.196px ">a</tspan></text></g><g><text x="2264.87px" y="997.196px" style="font-family:'SFUIDisplay-Light', 'SF UI Display';font-weight:300;font-size:62.296px;">Il</text><text x="2288.56px" y="997.196px" style="font-family:'SFUIDisplay-Light', 'SF UI Display';font-weight:300;font-size:62.296px;">linois</text></g><g><text x="2601.5px" y="997.196px" style="font-family:'SFUIDisplay-Light', 'SF UI Display';font-weight:300;font-size:62.296px;">M</text><text x="2650.92px" y="997.196px" style="font-family:'SFUIDisplay-Light', 'SF UI Display';font-weight:300;font-size:62.296px;">ichig<tspan x="2774.9px " y="997.196px ">a</tspan>n</text></g><g><text x="3345.08px" y="997.196px" style="font-family:'SFUIDisplay-Light', 'SF UI Display';font-weight:300;font-size:62.296px;">N</text><text x="3386.55px" y="997.196px" style="font-family:'SFUIDisplay-Light', 'SF UI Display';font-weight:300;font-size:62.296px;">e<tspan x="3418.97px " y="997.196px ">w</tspan> Y<tspan x="3508.64px " y="997.196px ">o</tspan>rk</text></g><g><text x="3652.45px" y="997.196px" style="font-family:'SFUIDisplay-Light', 'SF UI Display';font-weight:300;font-size:62.296px;">M</text><text x="3701.86px" y="997.196px" style="font-family:'SFUIDisplay-Light', 'SF UI Display';font-weight:300;font-size:62.296px;">assachusetts</text></g><g><text x="2214.67px" y="670.029px" style="font-family:'SFUIDisplay-Light', 'SF UI Display';font-weight:300;font-size:62.296px;">W</text><text x="2269.86px" y="670.029px" style="font-family:'SFUIDisplay-Light', 'SF UI Display';font-weight:300;font-size:62.296px;">isconsin</text></g><g><text x="3358.9px" y="670.029px" style="font-family:'SFUIDisplay-Light', 'SF UI Display';font-weight:300;font-size:62.296px;">V</text><text x="3393.22px" y="670.029px" style="font-family:'SFUIDisplay-Light', 'SF UI Display';font-weight:300;font-size:62.296px;">ermont</text></g><g><text x="3630.8px" y="670.029px" style="font-family:'SFUIDisplay-Light', 'SF UI Display';font-weight:300;font-size:62.296px;">N</text><text x="3672.27px" y="670.029px" style="font-family:'SFUIDisplay-Light', 'SF UI Display';font-weight:300;font-size:62.296px;">e<tspan x="3704.7px " y="670.029px ">w</tspan> Hampshir<tspan x="4015.72px " y="670.029px ">e</tspan></text></g><g><text x="4145.55px" y="670.029px" style="font-family:'SFUIDisplay-Light', 'SF UI Display';font-weight:300;font-size:62.296px;">M</text><text x="4194.96px" y="670.029px" style="font-family:'SFUIDisplay-Light', 'SF UI Display';font-weight:300;font-size:62.296px;">aine</text></g><g><g><text x="3651.8px" y="133.768px" style="font-family:'SFUIDisplay-Thin', 'SF UI Display';font-weight:200;font-size:72.681px;">w<tspan x="3701.46px 3751.13px " y="133.768px 133.768px ">ww</tspan></text><text x="3795.62px" y="133.768px" style="font-family:'SFUIDisplay-Thin', 'SF UI Display';font-weight:200;font-size:72.681px;">.</text></g><g><text x="3812.84px" y="133.768px" style="font-family:'SFUIDisplay-Light', 'SF UI Display';font-weight:300;font-size:72.681px;">c<tspan x="3849.17px 3887.68px 3925.78px 3963.88px 4002.39px 4024.41px " y="133.768px 133.768px 133.768px 133.768px 133.768px 133.768px ">onnorr</tspan></text><text x="4044.28px" y="133.768px" style="font-family:'SFUIDisplay-Light', 'SF UI Display';font-weight:300;font-size:72.681px;">o<tspan x="4082.79px 4103.56px 4142.39px 4175.66px 4211.98px 4250.81px 4264.36px 4277.9px " y="133.768px 133.768px 133.768px 133.768px 133.768px 133.768px 133.768px 133.768px ">thschild</tspan></text></g><g><text x="4318.09px" y="133.768px" style="font-family:'SFUIDisplay-Thin', 'SF UI Display';font-weight:200;font-size:72.681px;">.</text><text x="4332.74px" y="133.768px" style="font-family:'SFUIDisplay-Thin', 'SF UI Display';font-weight:200;font-size:72.681px;">c<tspan x="4368.45px 4406.27px " y="133.768px 133.768px ">om</tspan></text></g></g><text x="2068.93px" y="806.35px" style="font-family:'SFUIDisplay-Thin', 'SF UI Display';font-weight:200;font-size:69.446px;">0%</text><text x="2550.52px" y="806.35px" style="font-family:'SFUIDisplay-Thin', 'SF UI Display';font-weight:200;font-size:69.446px;">1<tspan x="2577.55px " y="806.35px ">0</tspan>%</text><g><text x="179.542px" y="439.738px" style="font-family:'SFUIDisplay-Light', 'SF UI Display';font-weight:300;font-size:127.608px;">P</text><text x="248.808px" y="439.738px" style="font-family:'SFUIDisplay-Light', 'SF UI Display';font-weight:300;font-size:127.608px;">er<tspan x="351.431px " y="439.738px ">c</tspan>ent<tspan x="588.204px " y="439.738px ">a</tspan>ge of CO<tspan x="1127.55px " y="439.738px ">V</tspan>ID cases attribut<tspan x="2070.41px " y="439.738px ">a</tspan>ble t<tspan x="2362.2px " y="439.738px ">o</tspan> univ<tspan x="2680.16px 2747.14px 2786.27px " y="439.738px 439.738px 439.738px ">ers</tspan>ities<tspan x="3057.13px " y="439.738px ">,</tspan> b<tspan x="3187.72px " y="439.738px ">y</tspan> st<tspan x="3373.03px 3438.33px 3473.35px " y="439.738px 439.738px 439.738px ">ate</tspan></text></g><g><text x="179.542px" y="249.004px" style="font-family:'SFUIDisplay-Medium', 'SF UI Display';font-weight:500;font-size:166.129px;">O</text><text x="299.646px" y="249.004px" style="font-family:'SFUIDisplay-Medium', 'SF UI Display';font-weight:500;font-size:166.129px;">ne t<tspan x="573.824px " y="249.004px ">o</tspan>o many fr<tspan x="1354.75px 1443.33px 1495.81px " y="249.004px 249.004px 249.004px ">ate</tspan>rnity parties</text></g></svg>